<?xml version="1.0" encoding="UTF-8" standalone="yes"?>
<svg xmlns="http://www.w3.org/2000/svg" xmlns:xlink="http://www.w3.org/1999/xlink" width="100px" height="100px" viewBox="0 0 100 100" version="1.1" fill="#000000">
  <g id="surface674877">
    <path style=" stroke:none;fill-rule:nonzero;fill:#000000;fill-opacity:1;" d="M 50 4 C 30.140625 4 14 20.140625 14 40 C 14 47.984375 16.648438 55.335938 21.0625 61.3125 L 8.25 83.1875 C 7.90625 83.773438 7.882812 84.492188 8.1875 85.09375 C 8.492188 85.703125 9.078125 86.109375 9.75 86.1875 L 19.75 87.3125 L 25.1875 95.125 C 25.578125 95.6875 26.226562 96.015625 26.90625 95.992188 C 27.59375 95.960938 28.21875 95.59375 28.5625 95 L 40.4375 74.6875 C 43.484375 75.53125 46.6875 76 50 76 C 53.3125 76 56.515625 75.53125 59.5625 74.6875 L 71.4375 95 C 71.78125 95.59375 72.40625 95.960938 73.09375 95.992188 C 73.773438 96.015625 74.421875 95.6875 74.8125 95.125 L 80.25 87.3125 L 90.25 86.1875 C 90.921875 86.109375 91.507812 85.703125 91.8125 85.09375 C 92.117188 84.492188 92.09375 83.773438 91.75 83.1875 L 78.9375 61.3125 C 83.351562 55.335938 86 47.984375 86 40 C 86 20.140625 69.859375 4 50 4 Z M 50 8 C 67.695312 8 82 22.304688 82 40 C 82 47.523438 79.390625 54.414062 75.0625 59.875 C 75.015625 59.9375 74.976562 60 74.9375 60.0625 C 69.078125 67.34375 60.09375 72 50 72 C 39.984375 72 31.054688 67.4375 25.1875 60.25 C 25.117188 60.117188 25.03125 59.992188 24.9375 59.875 C 20.609375 54.414062 18 47.523438 18 40 C 18 22.304688 32.304688 8 50 8 Z M 50 10 C 48.898438 10 48 10.898438 48 12 C 48 13.101562 48.898438 14 50 14 C 51.101562 14 52 13.101562 52 12 C 52 10.898438 51.101562 10 50 10 Z M 44.125 10.5625 C 43.039062 10.78125 42.351562 11.851562 42.5625 12.9375 C 42.78125 14.023438 43.851562 14.710938 44.9375 14.5 C 46.023438 14.28125 46.710938 13.210938 46.5 12.125 C 46.289062 11.039062 45.203125 10.34375 44.125 10.5625 Z M 55.0625 10.5625 C 54.296875 10.71875 53.664062 11.3125 53.5 12.125 C 53.28125 13.210938 53.976562 14.28125 55.0625 14.5 C 56.148438 14.71875 57.21875 14.023438 57.4375 12.9375 C 57.65625 11.851562 56.960938 10.78125 55.875 10.5625 C 55.601562 10.507812 55.320312 10.507812 55.0625 10.5625 Z M 39.3125 12.125 C 39.054688 12.125 38.757812 12.203125 38.5 12.3125 C 37.476562 12.734375 37.015625 13.851562 37.4375 14.875 C 37.859375 15.898438 39.039062 16.421875 40.0625 16 C 41.085938 15.578125 41.546875 14.398438 41.125 13.375 C 40.804688 12.609375 40.09375 12.132812 39.3125 12.125 Z M 60.6875 12.125 C 59.90625 12.132812 59.195312 12.609375 58.875 13.375 C 58.453125 14.398438 58.914062 15.578125 59.9375 16 C 60.960938 16.421875 62.140625 15.898438 62.5625 14.875 C 62.984375 13.851562 62.523438 12.734375 61.5 12.3125 C 61.242188 12.203125 60.945312 12.125 60.6875 12.125 Z M 34.0625 14.75 C 33.804688 14.796875 33.539062 14.90625 33.3125 15.0625 C 32.390625 15.679688 32.132812 16.890625 32.75 17.8125 C 33.367188 18.734375 34.640625 18.992188 35.5625 18.375 C 36.484375 17.757812 36.742188 16.546875 36.125 15.625 C 35.664062 14.9375 34.828125 14.601562 34.0625 14.75 Z M 65.1875 14.75 C 64.6875 14.851562 64.179688 15.164062 63.875 15.625 C 63.257812 16.546875 63.515625 17.757812 64.4375 18.375 C 65.359375 18.992188 66.632812 18.734375 67.25 17.8125 C 67.867188 16.890625 67.609375 15.679688 66.6875 15.0625 C 66.226562 14.757812 65.6875 14.648438 65.1875 14.75 Z M 30.1875 18.1875 C 29.671875 18.1875 29.203125 18.421875 28.8125 18.8125 C 28.03125 19.59375 28.03125 20.84375 28.8125 21.625 C 29.59375 22.40625 30.84375 22.40625 31.625 21.625 C 32.40625 20.84375 32.40625 19.59375 31.625 18.8125 C 31.234375 18.421875 30.703125 18.1875 30.1875 18.1875 Z M 69.8125 18.1875 C 69.296875 18.1875 68.765625 18.421875 68.375 18.8125 C 67.59375 19.59375 67.59375 20.84375 68.375 21.625 C 69.15625 22.40625 70.40625 22.40625 71.1875 21.625 C 71.96875 20.84375 71.96875 19.59375 71.1875 18.8125 C 70.796875 18.421875 70.328125 18.1875 69.8125 18.1875 Z M 26.3125 22.5 C 25.8125 22.601562 25.367188 22.851562 25.0625 23.3125 C 24.445312 24.234375 24.703125 25.507812 25.625 26.125 C 26.546875 26.742188 27.757812 26.484375 28.375 25.5625 C 28.992188 24.640625 28.734375 23.367188 27.8125 22.75 C 27.351562 22.445312 26.8125 22.398438 26.3125 22.5 Z M 72.875 22.5 C 72.617188 22.546875 72.414062 22.65625 72.1875 22.8125 C 71.265625 23.429688 71.007812 24.640625 71.625 25.5625 C 72.242188 26.484375 73.453125 26.742188 74.375 26.125 C 75.296875 25.507812 75.554688 24.234375 74.9375 23.3125 C 74.476562 22.625 73.640625 22.351562 72.875 22.5 Z M 49.3125 25.375 C 49.15625 26.226562 47.023438 29.765625 42.4375 30.0625 L 42.4375 33.625 L 48.0625 33.625 L 48.0625 53.375 L 53.0625 53.375 L 53.0625 25.375 Z M 24.125 27.3125 C 23.34375 27.320312 22.632812 27.734375 22.3125 28.5 C 21.890625 29.523438 22.351562 30.703125 23.375 31.125 C 24.398438 31.546875 25.578125 31.085938 26 30.0625 C 26.421875 29.039062 25.898438 27.859375 24.875 27.4375 C 24.617188 27.328125 24.382812 27.3125 24.125 27.3125 Z M 75.875 27.3125 C 75.617188 27.3125 75.382812 27.328125 75.125 27.4375 C 74.101562 27.859375 73.578125 29.039062 74 30.0625 C 74.421875 31.085938 75.601562 31.546875 76.625 31.125 C 77.648438 30.703125 78.109375 29.523438 77.6875 28.5 C 77.367188 27.734375 76.65625 27.320312 75.875 27.3125 Z M 22.125 32.5625 C 21.359375 32.71875 20.726562 33.3125 20.5625 34.125 C 20.34375 35.210938 21.039062 36.28125 22.125 36.5 C 23.210938 36.71875 24.28125 36.023438 24.5 34.9375 C 24.71875 33.851562 24.023438 32.78125 22.9375 32.5625 C 22.664062 32.507812 22.382812 32.507812 22.125 32.5625 Z M 77.0625 32.5625 C 75.976562 32.78125 75.289062 33.851562 75.5 34.9375 C 75.71875 36.015625 76.789062 36.710938 77.875 36.5 C 78.960938 36.28125 79.648438 35.210938 79.4375 34.125 C 79.21875 33.039062 78.148438 32.351562 77.0625 32.5625 Z M 32.5 35.375 L 31.0625 38.25 L 27.875 38.6875 L 30.1875 40.9375 L 29.625 44.125 L 32.5 42.5625 L 35.3125 44.125 L 34.75 40.9375 L 37.0625 38.6875 L 33.9375 38.25 Z M 66.5 35.375 L 65.0625 38.25 L 61.875 38.6875 L 64.1875 40.9375 L 63.625 44.125 L 66.5 42.5625 L 69.3125 44.125 L 68.75 40.9375 L 71.0625 38.6875 L 67.9375 38.25 Z M 22 38 C 20.898438 38 20 38.898438 20 40 C 20 41.101562 20.898438 42 22 42 C 23.101562 42 24 41.101562 24 40 C 24 38.898438 23.101562 38 22 38 Z M 78 38 C 76.898438 38 76 38.898438 76 40 C 76 41.101562 76.898438 42 78 42 C 79.101562 42 80 41.101562 80 40 C 80 38.898438 79.101562 38 78 38 Z M 22.125 43.5 C 21.039062 43.71875 20.351562 44.789062 20.5625 45.875 C 20.78125 46.960938 21.851562 47.648438 22.9375 47.4375 C 24.023438 47.226562 24.710938 46.148438 24.5 45.0625 C 24.28125 43.984375 23.210938 43.289062 22.125 43.5 Z M 77.0625 43.5 C 76.296875 43.65625 75.664062 44.25 75.5 45.0625 C 75.28125 46.148438 75.976562 47.21875 77.0625 47.4375 C 78.148438 47.65625 79.21875 46.960938 79.4375 45.875 C 79.65625 44.796875 78.960938 43.71875 77.875 43.5 C 77.601562 43.445312 77.320312 43.445312 77.0625 43.5 Z M 24.125 48.6875 C 23.867188 48.6875 23.632812 48.765625 23.375 48.875 C 22.351562 49.296875 21.890625 50.476562 22.3125 51.5 C 22.734375 52.523438 23.851562 52.984375 24.875 52.5625 C 25.898438 52.140625 26.421875 50.960938 26 49.9375 C 25.679688 49.171875 24.90625 48.695312 24.125 48.6875 Z M 75.875 48.6875 C 75.09375 48.695312 74.320312 49.171875 74 49.9375 C 73.578125 50.960938 74.101562 52.140625 75.125 52.5625 C 76.148438 52.984375 77.265625 52.523438 77.6875 51.5 C 78.109375 50.476562 77.648438 49.296875 76.625 48.875 C 76.367188 48.765625 76.132812 48.6875 75.875 48.6875 Z M 26.3125 53.5625 C 26.054688 53.609375 25.851562 53.71875 25.625 53.875 C 24.703125 54.492188 24.445312 55.765625 25.0625 56.6875 C 25.679688 57.609375 26.890625 57.804688 27.8125 57.1875 C 28.734375 56.570312 28.992188 55.359375 28.375 54.4375 C 27.914062 53.75 27.078125 53.414062 26.3125 53.5625 Z M 73.6875 53.5625 C 72.921875 53.414062 72.085938 53.75 71.625 54.4375 C 71.007812 55.359375 71.265625 56.570312 72.1875 57.1875 C 73.109375 57.804688 74.320312 57.609375 74.9375 56.6875 C 75.554688 55.765625 75.296875 54.492188 74.375 53.875 C 74.148438 53.71875 73.945312 53.609375 73.6875 53.5625 Z M 30.1875 57.8125 C 29.671875 57.8125 29.203125 57.984375 28.8125 58.375 C 28.03125 59.15625 28.03125 60.40625 28.8125 61.1875 C 29.59375 61.96875 30.84375 61.96875 31.625 61.1875 C 32.40625 60.40625 32.40625 59.15625 31.625 58.375 C 31.234375 57.984375 30.703125 57.8125 30.1875 57.8125 Z M 69.8125 57.8125 C 69.296875 57.8125 68.765625 57.984375 68.375 58.375 C 67.59375 59.15625 67.59375 60.40625 68.375 61.1875 C 69.15625 61.96875 70.40625 61.96875 71.1875 61.1875 C 71.96875 60.40625 71.96875 59.15625 71.1875 58.375 C 70.796875 57.984375 70.328125 57.8125 69.8125 57.8125 Z M 34.0625 61.3125 C 33.5625 61.414062 33.117188 61.726562 32.8125 62.1875 C 32.195312 63.109375 32.390625 64.320312 33.3125 64.9375 C 34.234375 65.554688 35.507812 65.296875 36.125 64.375 C 36.742188 63.453125 36.484375 62.242188 35.5625 61.625 C 35.101562 61.320312 34.5625 61.210938 34.0625 61.3125 Z M 65.1875 61.3125 C 64.929688 61.359375 64.664062 61.46875 64.4375 61.625 C 63.515625 62.242188 63.257812 63.453125 63.875 64.375 C 64.492188 65.296875 65.765625 65.554688 66.6875 64.9375 C 67.609375 64.320312 67.804688 63.109375 67.1875 62.1875 C 66.726562 61.5 65.953125 61.164062 65.1875 61.3125 Z M 39.25 63.875 C 38.46875 63.882812 37.757812 64.359375 37.4375 65.125 C 37.015625 66.148438 37.476562 67.265625 38.5 67.6875 C 39.523438 68.109375 40.703125 67.648438 41.125 66.625 C 41.546875 65.601562 41.085938 64.421875 40.0625 64 C 39.804688 63.890625 39.507812 63.875 39.25 63.875 Z M 60.75 63.875 C 60.492188 63.875 60.195312 63.890625 59.9375 64 C 58.914062 64.421875 58.453125 65.601562 58.875 66.625 C 59.296875 67.648438 60.476562 68.109375 61.5 67.6875 C 62.523438 67.265625 62.984375 66.148438 62.5625 65.125 C 62.242188 64.359375 61.53125 63.882812 60.75 63.875 Z M 23.8125 64.5625 C 27.351562 68.328125 31.632812 71.398438 36.5 73.375 L 26.625 90.25 L 22.5625 84.3125 C 22.226562 83.84375 21.695312 83.554688 21.125 83.5 L 13.3125 82.5625 Z M 76.1875 64.5625 L 86.6875 82.5625 L 78.875 83.5 C 78.304688 83.554688 77.773438 83.84375 77.4375 84.3125 L 73.375 90.25 L 63.5 73.375 C 68.367188 71.398438 72.648438 68.328125 76.1875 64.5625 Z M 44.125 65.5 C 43.359375 65.65625 42.726562 66.25 42.5625 67.0625 C 42.34375 68.148438 43.039062 69.21875 44.125 69.4375 C 45.210938 69.65625 46.28125 68.960938 46.5 67.875 C 46.710938 66.789062 46.015625 65.71875 44.9375 65.5 C 44.664062 65.445312 44.382812 65.445312 44.125 65.5 Z M 55.0625 65.5 C 53.976562 65.71875 53.289062 66.789062 53.5 67.875 C 53.71875 68.960938 54.789062 69.648438 55.875 69.4375 C 56.960938 69.21875 57.648438 68.148438 57.4375 67.0625 C 57.21875 65.976562 56.148438 65.28125 55.0625 65.5 Z M 50 66 C 48.898438 66 48 66.898438 48 68 C 48 69.101562 48.898438 70 50 70 C 51.101562 70 52 69.101562 52 68 C 52 66.898438 51.101562 66 50 66 Z M 50 66 "/>
  </g>
</svg>
